<svg width="160" height="53" viewBox="0 0 160 53" fill="none" xmlns="http://www.w3.org/2000/svg">
<g style="mix-blend-mode:color-dodge">
<path fill-rule="evenodd" clip-rule="evenodd" d="M4.183 17.7778V34.5098H0V39.7385H13.5947V34.5098H9.41175V12.549H0V17.7778H4.183ZM6.2745 6.2745C7.99999 6.2745 9.41175 4.86274 9.41175 3.13725C9.41175 1.41176 7.99999 0 6.2745 0C4.54901 0 3.13725 1.41176 3.13725 3.13725C3.13725 4.86274 4.54901 6.2745 6.2745 6.2745ZM160 46.7974C160 48.6797 158.484 50.1961 156.654 50.1961H106.876C105.046 50.1961 103.529 48.6797 103.529 46.7974V5.49026C103.529 3.60791 105.046 2.09157 106.876 2.09157H156.654C158.484 2.09157 160 3.60791 160 5.49026V46.7974ZM153.099 14.6407L143.269 25.9348L153.099 37.2812C154.301 38.693 154.197 40.8368 152.785 42.0917C152.157 42.6668 151.373 42.9283 150.589 42.9283C149.648 42.9283 148.706 42.5623 148.027 41.7779L138.772 31.1113L129.517 41.7779C128.837 42.5623 127.896 42.9283 126.955 42.9283C126.171 42.9283 125.386 42.6668 124.759 42.0917C123.347 40.8368 123.242 38.693 124.445 37.2812L134.275 25.9871L124.445 14.6407C123.242 13.229 123.347 11.0852 124.759 9.83028C126.171 8.57538 128.314 8.73224 129.517 10.144L138.772 20.8107L148.027 10.144C149.282 8.73224 151.373 8.57538 152.785 9.83028C154.197 11.0852 154.301 13.229 153.099 14.6407ZM110.012 39.8956C110.012 41.7779 111.476 43.2943 113.359 43.2943C115.241 43.2943 116.757 41.7779 116.705 39.8956V12.7584C116.705 10.876 115.189 9.35967 113.359 9.35967C111.529 9.35967 110.012 10.876 110.012 12.7584V39.8956ZM20.9148 34.51V17.778H16.7318V12.5492H26.5618V15.6865C29.6991 13.1244 32.9932 11.9741 36.0258 11.9741C39.0585 11.9741 41.15 13.3858 42.3003 16.2093C45.7513 13.3858 48.9931 11.9741 51.9735 11.9741C53.699 11.9741 55.1108 12.3401 56.2088 13.1244C57.3069 13.9087 58.0912 14.9022 58.4572 16.0525C58.8232 17.2551 59.0323 18.9806 59.0323 21.2812V34.51H63.7382V39.7387H53.7513V22.2747C53.7513 20.7061 53.699 19.608 53.5422 18.9806C53.3853 18.3531 53.0716 17.8303 52.4964 17.3597C51.9212 16.9414 51.2415 16.7322 50.4572 16.7322C48.2088 16.7322 45.699 17.8825 42.8232 20.2355V34.51H47.0585V39.7387H37.699V21.8041C37.699 20.0263 37.4376 18.7714 36.967 17.9348C36.4441 17.1505 35.6075 16.7322 34.4049 16.7322C32.418 16.7322 29.2808 17.5165 26.1958 19.8695V34.51H31.4768V39.7387H16.7318V34.51H20.9148ZM97.2542 17.7776V12.5488V12.4965H87.7901V16.6795C85.0189 13.8037 81.4634 11.9214 77.9601 11.9214C74.4568 11.9214 71.4242 13.2286 68.7575 15.8952C66.0908 18.5619 64.7837 22.0129 64.7837 26.3004C64.7837 30.222 65.9863 33.5684 68.3915 36.2351C70.7967 38.9017 73.934 40.2612 77.7509 40.2612C79.8424 40.2612 81.7771 39.7906 83.5549 38.8494C85.2803 37.9083 86.5875 36.8625 87.4241 35.8168V38.2743C87.4241 40.052 87.3718 41.3592 87.1627 42.0913C87.0058 42.8756 86.5875 43.6599 85.9601 44.4965C85.3326 45.3331 84.3915 46.0651 83.0843 46.6403C81.7771 47.2154 80.4176 47.5292 78.9013 47.5292C76.1823 47.5292 73.6725 46.6403 71.3719 44.8102L67.9732 48.6795C71.0582 51.0847 74.5614 52.2873 78.483 52.2873C81.0451 52.2873 83.4503 51.8167 85.5418 50.8756C87.6856 49.9344 89.2542 48.7841 90.2999 47.4246C91.3457 46.0651 92.0254 44.7056 92.2869 43.3984C92.5483 42.0913 92.7052 40.052 92.7052 37.3331L92.7575 17.7776H97.2542ZM72.7314 32.9932C71.1627 31.2155 70.3784 28.9671 70.3784 26.2481C70.3784 23.4246 71.2673 21.124 72.9405 19.5553C74.6137 17.8821 76.6006 17.0455 78.9013 17.0455C81.2019 17.0455 83.1888 17.8821 84.9143 19.5553C86.6398 21.2285 87.5287 23.4769 87.5287 26.2481C87.5287 29.0194 86.6398 31.2677 84.9143 32.9932C83.1888 34.7187 81.1496 35.6076 78.7444 35.6076C76.2869 35.6076 74.3 34.7187 72.7314 32.9932Z" fill="white"/>
</g>
</svg>
