<svg width="1059" height="1427" viewBox="0 0 1059 1427" fill="none" xmlns="http://www.w3.org/2000/svg">
<path d="M1058 0C1058 64.0411 1058 210.722 1058 285.117C1058 575.426 325.51 507.923 325.51 925.213C325.51 1259.05 325.51 1398.83 325.51 1427" stroke="#6B6B6B" stroke-miterlimit="9.92" style="mix-blend-mode:color-dodge"/>
<path d="M788.357 0C788.357 64.0411 788.357 210.722 788.357 285.117C788.357 575.426 1 507.923 1 925.213C1 1259.05 1 1398.83 1 1427" stroke="#6B6B6B" stroke-miterlimit="9.92" style="mix-blend-mode:color-dodge"/>
<path d="M1033.49 0C1033.49 64.0411 1033.49 210.722 1033.49 285.117C1033.49 575.426 296.009 507.923 296.009 925.213C296.009 1259.05 296.009 1398.83 296.009 1427" stroke="#6B6B6B" stroke-miterlimit="9.92" style="mix-blend-mode:color-dodge"/>
<path d="M1008.97 0C1008.97 64.0411 1008.97 210.722 1008.97 285.117C1008.97 575.426 266.508 507.923 266.508 925.213C266.508 1259.05 266.508 1398.83 266.508 1427" stroke="#6B6B6B" stroke-miterlimit="9.92" style="mix-blend-mode:color-dodge"/>
<path d="M984.461 0C984.461 64.0411 984.461 210.722 984.461 285.117C984.461 575.426 237.007 507.923 237.007 925.213C237.007 1259.05 237.007 1398.83 237.007 1427" stroke="#6B6B6B" stroke-miterlimit="9.92" style="mix-blend-mode:color-dodge"/>
<path d="M959.948 0C959.948 64.0411 959.948 210.722 959.948 285.117C959.948 575.426 207.506 507.923 207.506 925.213C207.506 1259.05 207.506 1398.83 207.506 1427" stroke="#6B6B6B" stroke-miterlimit="9.92" style="mix-blend-mode:color-dodge"/>
<path d="M935.435 0C935.435 64.0411 935.435 210.722 935.435 285.117C935.435 575.426 178.005 507.923 178.005 925.213C178.005 1259.05 178.005 1398.83 178.005 1427" stroke="#6B6B6B" stroke-miterlimit="9.92" style="mix-blend-mode:color-dodge"/>
<path d="M910.922 0C910.922 64.0411 910.922 210.722 910.922 285.117C910.922 575.426 148.504 507.923 148.504 925.213C148.504 1259.05 148.504 1398.83 148.504 1427" stroke="#6B6B6B" stroke-miterlimit="9.92" style="mix-blend-mode:color-dodge"/>
<path d="M886.41 0C886.41 64.0411 886.41 210.722 886.41 285.117C886.41 575.426 119.004 507.923 119.004 925.213C119.004 1259.05 119.004 1398.83 119.004 1427" stroke="#6B6B6B" stroke-miterlimit="9.92" style="mix-blend-mode:color-dodge"/>
<path d="M861.895 0C861.895 64.0411 861.895 210.722 861.895 285.117C861.895 575.426 89.502 507.923 89.502 925.213C89.502 1259.05 89.502 1398.83 89.502 1427" stroke="#6B6B6B" stroke-miterlimit="9.92" style="mix-blend-mode:color-dodge"/>
<path d="M837.383 0C837.383 64.0411 837.383 210.722 837.383 285.117C837.383 575.426 60.002 507.923 60.002 925.213C60.002 1259.05 60.002 1398.83 60.002 1427" stroke="#6B6B6B" stroke-miterlimit="9.92" style="mix-blend-mode:color-dodge"/>
<path d="M812.869 0C812.869 64.0411 812.869 210.722 812.869 285.117C812.869 575.426 30.5 507.923 30.5 925.213C30.5 1259.05 30.5 1398.83 30.5 1427" stroke="#6B6B6B" stroke-miterlimit="9.92" style="mix-blend-mode:color-dodge"/>
</svg>
